{"title":"solo_girl_2","uid":5075844,"size":32592832,"categoryP":"porn","categoryS":"movie_clips","magnet":"?xt=urn:btih:9c5eed52919839755ceba0c17ed2a85eb534a1c5&amp;dn=solo_girl_2&amp;tr=udp%3A%2F%2Ftracker.openbittorrent.com%3A80&amp;tr=udp%3A%2F%2Fopen.demonii.com%3A1337&amp;tr=udp%3A%2F%2Ftracker.coppersurfer.tk%3A6969&amp;tr=udp%3A%2F%2Fexodus.desync.com%3A6969","seeders":0,"leechers":0,"uploader":"sandokan89","files":-1,"time":1251827667,"description":"--------------------- solo_girl_2 --------------------------\n\nVideo\nFormat                           : MPEG-4 Visual ---- AVI\nFormat profile                   : Simple@L3\nFormat settings, BVOP            : No\nFormat settings, QPel            : No\nFormat settings, GMC             : No warppoints\nFormat settings, Matrix          : Default (H.263)\nCodec ID                         : DX50\nCodec ID/Hint                    : DivX 5\nDuration                         : 2mn 1s\nBit rate                         : 1 979 Kbps\nWidth                            : 640 pixels\nHeight                           : 480 pixels\nDisplay aspect ratio             : 4/3\nFrame rate                       : 29.970 fps\nResolution                       : 24 bits\nColorimetry                      : 4:2:0\nScan type                        : Progressive\nBits/(Pixel*Frame)               : 0.215\nStream size                      : 28.6 MiB (92%)\nWriting library                  : XviD 1.1.2 (UTC 2006-11-01)\n\nAudio\nFormat                           : MPEG Audio\nFormat version                   : Version 1\nFormat profile                   : Layer 3\nCodec ID                         : 55\nCodec ID/Hint                    : MP3\nDuration                         : 2mn 1s\nBit rate mode                    : Constant\nBit rate                         : 160 Kbps\nChannel(s)                       : 2 channels\nSampling rate                    : 44.1 KHz\nResolution                       : 16 bits\nStream size                      : 2.31 MiB (7%)\nAlignment                        : Aligned on interleaves\nInterleave, duration             : 26 ms (0.78 video","torrent":{"xt":"urn:btih:9c5eed52919839755ceba0c17ed2a85eb534a1c5","amp;dn":"solo_girl_2","amp;tr":["udp%3A%2F%2Ftracker.openbittorrent.com%3A80","udp%3A%2F%2Fopen.demonii.com%3A1337","udp%3A%2F%2Ftracker.coppersurfer.tk%3A6969","udp%3A%2F%2Fexodus.desync.com%3A6969"],"infoHash":"9c5eed52919839755ceba0c17ed2a85eb534a1c5","infoHashBuffer":{"type":"Buffer","data":[156,94,237,82,145,152,57,117,92,235,160,193,126,210,168,94,181,52,161,197]},"announce":[],"urlList":[]}}